<?xml version="1.0" encoding="utf-8"?>
<!-- Generator: Adobe Illustrator 23.0.1, SVG Export Plug-In . SVG Version: 6.00 Build 0)  -->
<svg version="1.1" id="Layer_1" xmlns="http://www.w3.org/2000/svg" xmlns:xlink="http://www.w3.org/1999/xlink" x="0px" y="0px"
	 viewBox="0 0 98 88" style="enable-background:new 0 0 98 88;" xml:space="preserve">
<style type="text/css">
	.st0{fill:#828282;}
</style>
<path class="st0" d="M89.9,8.5V5.8c0-1.5-1.2-2.6-2.6-2.6H10.9c-1.5,0-2.6,1.2-2.6,2.6v2.6c0,1.5,1.2,2.6,2.6,2.6v66.1
	c-1.5,0.5-2.6,2-2.6,3.7v3.9h81.6v-3.9c0-1.7-1.1-3.2-2.6-3.7V11.1C88.7,11.1,89.9,9.9,89.9,8.5z M10.9,5.8h76.4l0,2.6H10.9V5.8z
	 M42.5,11.1v65.8h-29V11.1H42.5z M87.3,82.2H10.9v-1.3c0-0.7,0.6-1.3,1.3-1.3h73.7c0.7,0,1.3,0.6,1.3,1.3V82.2z M84.6,16.4H63.6
	c-2.2,0-3.9,1.8-3.9,3.9v3.9h-1.3c-2.2,0-3.9,1.8-3.9,3.9v3.9h13.2v-3.9c0-2.2-1.8-3.9-3.9-3.9h-1.3v-3.9c0-0.7,0.6-1.3,1.3-1.3
	h21.1v17.1h-5.3v-2.6h-2.6v7.9h2.6v-2.6h5.3v38.2H45.1V11.1h39.5V16.4z M63.6,26.9c0.7,0,1.3,0.6,1.3,1.3v1.3H57v-1.3
	c0-0.7,0.6-1.3,1.3-1.3H63.6z"/>
<path class="st0" d="M39.9,50.6V37.4H32v13.2H39.9z M34.6,40.1h2.6v7.9h-2.6V40.1z"/>
<path class="st0" d="M59.6,34.8h2.6v5.3h-2.6V34.8z"/>
<path class="st0" d="M59.6,42.7h2.6v5.3h-2.6V42.7z"/>
<path class="st0" d="M59.6,50.6h2.6v5.3h-2.6V50.6z"/>
<path class="st0" d="M55.1,39.9l0.7-5.2l2.6,0.4l-0.7,5.2L55.1,39.9z"/>
<path class="st0" d="M54,47.8l0.7-5.2l2.6,0.4l-0.7,5.2L54,47.8z"/>
<path class="st0" d="M52.9,55.6l0.7-5.2l2.6,0.4l-0.7,5.2L52.9,55.6z"/>
<path class="st0" d="M63.7,35l2.6-0.3l0.6,5.2l-2.6,0.3L63.7,35z"/>
<path class="st0" d="M64.6,42.8l2.6-0.3l0.6,5.2l-2.6,0.3L64.6,42.8z"/>
<path class="st0" d="M65.5,50.7l2.6-0.3l0.6,5.2L66,55.9L65.5,50.7z"/>
</svg>
