<?xml version="1.0" encoding="utf-8"?>
<!-- Generator: Adobe Illustrator 23.0.1, SVG Export Plug-In . SVG Version: 6.00 Build 0)  -->
<svg version="1.1" id="Layer_1" xmlns="http://www.w3.org/2000/svg" xmlns:xlink="http://www.w3.org/1999/xlink" x="0px" y="0px"
	 viewBox="0 0 98 88" style="enable-background:new 0 0 98 88;" xml:space="preserve">
<style type="text/css">
	.st0{fill:#828282;}
</style>
<g>
	<path id="SVGCleanerId_0" class="st0" d="M66.6,84.54H31.58c-0.74,0-1.35-0.6-1.35-1.35V53.56c0-0.74,0.6-1.35,1.35-1.35H66.6
		c0.74,0,1.35,0.6,1.35,1.35v29.63C67.95,83.94,67.35,84.54,66.6,84.54z M32.93,81.85h32.33V54.91H32.93V81.85z"/>
	<g>
		<path id="SVGCleanerId_0_1_" class="st0" d="M66.6,84.54H31.58c-0.74,0-1.35-0.6-1.35-1.35V53.56c0-0.74,0.6-1.35,1.35-1.35H66.6
			c0.74,0,1.35,0.6,1.35,1.35v29.63C67.95,83.94,67.35,84.54,66.6,84.54z M32.93,81.85h32.33V54.91H32.93V81.85z"/>
	</g>
	<path class="st0" d="M31.58,84.54H10.03c-0.74,0-1.35-0.6-1.35-1.35V53.56c0-0.74,0.6-1.35,1.35-1.35h21.55
		c0.74,0,1.35,0.6,1.35,1.35v29.63C32.93,83.94,32.32,84.54,31.58,84.54z M11.37,81.85h18.86V54.91H11.37V81.85z"/>
	<path class="st0" d="M88.15,84.54H66.6c-0.74,0-1.35-0.6-1.35-1.35V53.56c0-0.74,0.6-1.35,1.35-1.35h21.55
		c0.74,0,1.35,0.6,1.35,1.35v29.63C89.5,83.94,88.9,84.54,88.15,84.54z M67.95,81.85h18.86V54.91H67.95V81.85z"/>
	<path class="st0" d="M61.21,79.15H36.97c-0.74,0-1.35-0.6-1.35-1.35V64.33c0-0.74,0.6-1.35,1.35-1.35h24.25
		c0.74,0,1.35,0.6,1.35,1.35V77.8C62.56,78.55,61.96,79.15,61.21,79.15z M38.31,76.46h21.55V65.68H38.31V76.46z"/>
	<rect x="50.44" y="57.6" class="st0" width="2.69" height="2.69"/>
	<rect x="45.05" y="57.6" class="st0" width="2.69" height="2.69"/>
	<rect x="39.66" y="57.6" class="st0" width="2.69" height="2.69"/>
	<rect x="55.82" y="57.6" class="st0" width="2.69" height="2.69"/>
	<rect x="10.03" y="62.99" class="st0" width="21.55" height="2.69"/>
	<rect x="18.11" y="57.6" class="st0" width="5.39" height="2.69"/>
	<rect x="18.11" y="68.38" class="st0" width="5.39" height="2.69"/>
	<rect x="66.6" y="62.99" class="st0" width="21.55" height="2.69"/>
	<rect x="76.03" y="64.33" class="st0" width="2.69" height="18.86"/>
	<rect x="74.68" y="57.6" class="st0" width="5.39" height="2.69"/>
	<rect x="70.64" y="71.07" class="st0" width="2.69" height="4.04"/>
	<rect x="81.42" y="71.07" class="st0" width="2.69" height="4.04"/>
	<path class="st0" d="M65.25,27.97H32.93c-0.54,0-1.04-0.33-1.24-0.83c-0.21-0.5-0.09-1.08,0.29-1.47l4.99-4.99V5.07
		c0-0.74,0.6-1.35,1.35-1.35h21.55c0.74,0,1.35,0.6,1.35,1.35v15.61l4.99,4.99c0.39,0.39,0.5,0.96,0.29,1.47
		C66.29,27.64,65.8,27.97,65.25,27.97z M36.18,25.27H62l-3.09-3.09c-0.25-0.25-0.39-0.6-0.39-0.95V6.41H39.66v14.82
		c0,0.36-0.14,0.7-0.39,0.95L36.18,25.27z"/>
	<path class="st0" d="M86.81,53.56h-2.69V38.74c0-1.49-1.21-2.69-2.69-2.69s-2.69,1.21-2.69,2.69v1.35h-2.69v-1.35
		c0-2.97,2.42-5.39,5.39-5.39s5.39,2.42,5.39,5.39V53.56z"/>
	<rect x="81.42" y="46.82" class="st0" width="4.04" height="2.69"/>
	<path class="st0" d="M47.74,54.91H34.27c-0.74,0-1.35-0.6-1.35-1.35v-8.08c0-0.74,0.6-1.35,1.35-1.35h13.47
		c0.74,0,1.35,0.6,1.35,1.35v8.08C49.09,54.3,48.49,54.91,47.74,54.91z M35.62,52.21H46.4v-5.39H35.62V52.21z"/>
	<rect x="30.23" y="46.82" class="st0" width="4.04" height="2.69"/>
	<rect x="47.74" y="46.82" class="st0" width="4.04" height="2.69"/>
	<path class="st0" d="M31.58,22.58H10.03c-0.74,0-1.35-0.6-1.35-1.35V5.07c0-0.74,0.6-1.35,1.35-1.35h21.55
		c0.74,0,1.35,0.6,1.35,1.35v16.16C32.93,21.97,32.32,22.58,31.58,22.58z M11.37,19.88h18.86V6.41H11.37V19.88z"/>
	<rect x="24.84" y="11.8" class="st0" width="2.69" height="5.39"/>
	<path class="st0" d="M88.15,22.58H66.6c-0.74,0-1.35-0.6-1.35-1.35V5.07c0-0.74,0.6-1.35,1.35-1.35h21.55
		c0.74,0,1.35,0.6,1.35,1.35v16.16C89.5,21.97,88.9,22.58,88.15,22.58z M67.95,19.88h18.86V6.41H67.95V19.88z"/>
	<rect x="70.64" y="11.8" class="st0" width="2.69" height="5.39"/>
	<rect x="8.68" y="30.66" class="st0" width="24.25" height="2.69"/>
	<rect x="11.37" y="27.97" class="st0" width="2.69" height="12.12"/>
	<path class="st0" d="M12.72,46.82c-2.23,0-4.04-1.81-4.04-4.04s1.81-4.04,4.04-4.04s4.04,1.81,4.04,4.04S14.95,46.82,12.72,46.82z
		 M12.72,41.44c-0.74,0-1.35,0.6-1.35,1.35c0,0.74,0.6,1.35,1.35,1.35s1.35-0.6,1.35-1.35C14.07,42.04,13.46,41.44,12.72,41.44z"/>
	<rect x="16.76" y="27.97" class="st0" width="2.69" height="12.12"/>
	<path class="st0" d="M18.11,46.82c-2.23,0-4.04-1.81-4.04-4.04s1.81-4.04,4.04-4.04s4.04,1.81,4.04,4.04S20.34,46.82,18.11,46.82z
		 M18.11,41.44c-0.74,0-1.35,0.6-1.35,1.35c0,0.74,0.6,1.35,1.35,1.35s1.35-0.6,1.35-1.35C19.46,42.04,18.85,41.44,18.11,41.44z"/>
	<rect x="22.15" y="27.97" class="st0" width="2.69" height="12.12"/>
	<path class="st0" d="M23.5,46.82c-2.23,0-4.04-1.81-4.04-4.04s1.81-4.04,4.04-4.04s4.04,1.81,4.04,4.04S25.72,46.82,23.5,46.82z
		 M23.5,41.44c-0.74,0-1.35,0.6-1.35,1.35c0,0.74,0.6,1.35,1.35,1.35s1.35-0.6,1.35-1.35C24.84,42.04,24.24,41.44,23.5,41.44z"/>
</g>
</svg>
