<?xml version="1.0" encoding="utf-8"?>
<!-- Generator: Adobe Illustrator 23.0.1, SVG Export Plug-In . SVG Version: 6.00 Build 0)  -->
<svg version="1.1" id="Layer_1" xmlns="http://www.w3.org/2000/svg" xmlns:xlink="http://www.w3.org/1999/xlink" x="0px" y="0px"
	 viewBox="0 0 98 88" style="enable-background:new 0 0 98 88;" xml:space="preserve">
<style type="text/css">
	.st0{fill:#828282;}
</style>
<g>
	<path class="st0" d="M89.29,70.61h-0.08V57.67c0-3.09-2.22-5.67-5.14-6.23V38.39c0-3.5-2.85-6.35-6.35-6.35H21.17
		c-3.5,0-6.35,2.85-6.35,6.35v13.05c-2.93,0.56-5.14,3.14-5.14,6.23v12.93H9.6c-0.67,0-1.21,0.54-1.21,1.21v12.85
		c0,0.67,0.54,1.21,1.21,1.21h6.43c0.49,0,0.94-0.3,1.12-0.76l2.27-5.67h60.07l2.27,5.67c0.18,0.46,0.63,0.76,1.12,0.76h6.43
		c0.67,0,1.21-0.54,1.21-1.21V71.81C90.5,71.15,89.96,70.61,89.29,70.61L89.29,70.61z M21.17,34.46h56.56
		c2.17,0,3.94,1.77,3.94,3.94v12.93h-4.02v-8.79l1.16-2.32c0.23-0.46,0.14-1.02-0.23-1.39c-0.37-0.37-0.93-0.46-1.39-0.23
		l-2.15,1.08c-2.89-0.8-5.87-1.2-8.88-1.2c-3,0-5.99,0.4-8.88,1.2l-2.15-1.08c-0.46-0.23-1.02-0.14-1.39,0.23
		c-0.37,0.37-0.46,0.93-0.23,1.39l1.16,2.32v8.79H44.23v-8.79l1.16-2.32c0.23-0.46,0.14-1.02-0.23-1.39
		c-0.37-0.37-0.93-0.46-1.39-0.23l-2.15,1.08c-2.89-0.8-5.87-1.2-8.88-1.2s-5.99,0.4-8.88,1.2l-2.15-1.08
		c-0.46-0.23-1.02-0.14-1.39,0.23c-0.37,0.37-0.46,0.93-0.23,1.39l1.16,2.32v8.79h-4.02V38.39C17.23,36.22,19,34.46,21.17,34.46
		L21.17,34.46z M75.24,52.61c-0.14-0.01-0.28,0.01-0.42,0.05c-2.81,0.82-5.73,1.24-8.66,1.24s-5.85-0.42-8.66-1.24
		c-0.11-0.03-0.22-0.05-0.34-0.05c-0.03,0-0.06,0-0.08,0c0-0.03,0-0.06,0-0.08V42.25c0-0.03,0-0.06,0-0.08
		c0.14,0.01,0.28,0,0.42-0.05c2.81-0.82,5.73-1.24,8.66-1.24s5.85,0.42,8.66,1.24c0.14,0.04,0.28,0.06,0.42,0.05
		c0,0.03,0,0.06,0,0.08v10.28C75.24,52.56,75.24,52.59,75.24,52.61L75.24,52.61z M41.82,52.61c-0.14-0.01-0.28,0.01-0.42,0.05
		c-2.81,0.82-5.73,1.24-8.66,1.24c-2.93,0-5.85-0.42-8.66-1.24c-0.11-0.03-0.22-0.05-0.34-0.05c-0.03,0-0.06,0-0.08,0
		c0-0.03,0-0.06,0-0.08V42.25c0-0.03,0-0.06,0-0.08c0.14,0.01,0.28,0,0.42-0.05c2.82-0.82,5.73-1.24,8.66-1.24
		c2.93,0,5.85,0.42,8.66,1.24c0.14,0.04,0.28,0.06,0.42,0.05c0,0.03,0,0.06,0,0.08v10.28C41.82,52.56,41.82,52.59,41.82,52.61
		L41.82,52.61z M12.09,61.45h22.09c0.67,0,1.21-0.54,1.21-1.21c0-0.67-0.54-1.21-1.21-1.21H12.09v-1.37c0-2.17,1.77-3.94,3.94-3.94
		h4.48l-0.41,0.83c-0.23,0.46-0.14,1.02,0.23,1.39c0.37,0.37,0.93,0.46,1.39,0.23l2.15-1.08c2.89,0.8,5.88,1.2,8.88,1.2
		s5.99-0.41,8.88-1.2l2.15,1.08c0.46,0.23,1.03,0.14,1.39-0.23c0.37-0.37,0.46-0.93,0.23-1.39l-0.41-0.83h8.95l-0.41,0.83
		c-0.23,0.46-0.14,1.02,0.23,1.39c0.37,0.37,0.93,0.46,1.39,0.23l2.15-1.08c2.89,0.8,5.87,1.2,8.88,1.2c3,0,5.99-0.4,8.88-1.2
		l2.15,1.08c0.46,0.23,1.03,0.14,1.39-0.23c0.37-0.37,0.46-0.93,0.23-1.39l-0.41-0.83h4.48c2.17,0,3.94,1.77,3.94,3.94v1.37H39.86
		c-0.67,0-1.2,0.54-1.2,1.21c0,0.67,0.54,1.21,1.2,1.21H86.8v9.16H12.09V61.45z M88.09,83.46h-4.41l-2.27-5.67
		c-0.18-0.46-0.63-0.76-1.12-0.76H18.6c-0.49,0-0.94,0.3-1.12,0.76l-2.27,5.67h-4.41V73.02h77.28V83.46z M88.09,83.46"/>
	<path class="st0" d="M34.02,26.74h30.85c0.67,0,1.21-0.54,1.21-1.21V4.97c0-0.67-0.54-1.21-1.21-1.21H34.02
		c-0.67,0-1.21,0.54-1.21,1.21v20.57C32.82,26.2,33.36,26.74,34.02,26.74L34.02,26.74z M35.23,6.18h28.44v18.16H35.23V6.18z
		 M35.23,6.18"/>
	<path class="st0" d="M61.02,7.62H37.88c-0.67,0-1.21,0.54-1.21,1.21v12.85c0,0.67,0.54,1.21,1.21,1.21h23.14
		c0.67,0,1.21-0.54,1.21-1.21V8.83C62.22,8.16,61.68,7.62,61.02,7.62L61.02,7.62z M53.1,10.03c-0.34,0.76-0.56,1.49-0.69,2.11
		c-3.1-1.24-5.6-0.39-7.22,0.65c-1.32,0.84-2.24,1.91-2.73,2.56c-1.29,0.07-2.42,0.35-3.37,0.83v-6.15H53.1z M59.81,20.48H39.08
		v-1.33c0.88-0.93,2.22-1.4,4.02-1.4c0.42,0,0.82-0.22,1.03-0.59c0.13-0.22,3.3-5.36,8.63-2.16c0.37,0.22,0.83,0.23,1.21,0.02
		c0.38-0.21,0.61-0.61,0.62-1.04c0-0.02,0.03-2.08,1.25-3.94h3.97V20.48z M59.81,20.48"/>
	<path class="st0" d="M57.16,19.03c0.67,0,1.21-0.54,1.21-1.21v-1.29c0-0.67-0.54-1.21-1.21-1.21c-0.67,0-1.21,0.54-1.21,1.21v1.29
		C55.96,18.49,56.49,19.03,57.16,19.03L57.16,19.03z M57.16,19.03"/>
	<path class="st0" d="M49.45,15.34c-0.67,0-1.21,0.54-1.21,1.21v1.29c0,0.67,0.54,1.21,1.21,1.21c0.67,0,1.21-0.54,1.21-1.21v-1.29
		C50.65,15.88,50.11,15.34,49.45,15.34L49.45,15.34z M49.45,15.34"/>
</g>
</svg>
