<?xml version="1.0" encoding="utf-8"?>
<!-- Generator: Adobe Illustrator 23.0.1, SVG Export Plug-In . SVG Version: 6.00 Build 0)  -->
<svg version="1.1" id="Layer_1" xmlns="http://www.w3.org/2000/svg" xmlns:xlink="http://www.w3.org/1999/xlink" x="0px" y="0px"
	 viewBox="0 0 98 88" style="enable-background:new 0 0 98 88;" xml:space="preserve">
<style type="text/css">
	.st0{fill:#828282;}
</style>
<g>
	<path class="st0" d="M92.5,56.66v-3.41l-5.34-5h4.8L80.74,25.8h-19.1v-5.7c1.6-0.35,2.81-1.77,2.81-3.47v-0.88
		c0-1.22-0.61-2.34-1.63-2.99L43.4,0.28L23.99,12.76c-1.02,0.66-1.63,1.78-1.63,2.99v0.88c0,1.7,1.2,3.13,2.81,3.47v5.7h-7.88
		L6.05,48.24h5.08v30.87h-1.4c-2.32,0-4.21,1.89-4.21,4.21v4.21H92.5v-4.21c0-1.83-1.18-3.37-2.81-3.95V56.66H92.5z M75.66,79.11
		V62.27H61.63v16.84h-5.61V56.66h25.25v22.45H75.66z M72.86,79.11h-8.42V65.08h8.42V79.11z M53.22,79.11h-2.81V56.66h2.81V79.11z
		 M67.25,52.45c0-0.77,0.63-1.4,1.4-1.4c0.77,0,1.4,0.63,1.4,1.4c0,0.77-0.63,1.4-1.4,1.4C67.88,53.86,67.25,53.23,67.25,52.45
		L67.25,52.45z M72.6,53.86c0.16-0.44,0.26-0.91,0.26-1.4c0-2.32-1.89-4.21-4.21-4.21c-2.32,0-4.21,1.89-4.21,4.21
		c0,0.49,0.1,0.96,0.26,1.4h-7.98l11.93-11.4l11.93,11.4H72.6z M68.65,38.58l-16,15.28h-4.4l20.4-19.12l20.4,19.12h-4.4L68.65,38.58
		z M27.96,19.53L43.4,9.25l15.43,10.29v9.07h-9.82V17.38H37.78V28.6h-9.82V19.53z M27.96,31.41h2.81v2.81h-2.81V31.41z M33.58,31.41
		h2.81v2.81h-2.81V31.41z M46.2,28.6h-5.61v-8.42h5.61V28.6z M39.19,31.41h2.81v2.81h-2.81V31.41z M44.8,31.41h2.81v2.81H44.8V31.41
		z M50.41,31.41h2.81v2.81h-2.81V31.41z M56.02,31.41h2.81v2.81h-2.81V31.41z M26.56,37.02h33.67c0.49,0,0.92,0.27,1.17,0.66
		l-2.29,2.15H25.16v-1.4C25.16,37.65,25.79,37.02,26.56,37.02L26.56,37.02z M79.01,28.6l8.42,16.84h-3.25L68.65,30.89l-5.18,4.86
		c-0.48-0.58-1.11-1.03-1.83-1.28V28.6H79.01z M25.16,15.75c0-0.26,0.13-0.49,0.34-0.63L43.4,3.62l17.89,11.5
		c0.22,0.14,0.34,0.37,0.34,0.63v0.88c0,0.56-0.7,0.94-1.17,0.63L43.4,5.87L26.32,17.25c-0.47,0.31-1.17-0.06-1.17-0.63V15.75z
		 M19.01,28.6h6.15v5.87c-1.63,0.58-2.81,2.12-2.81,3.95v4.21h33.77l-2.99,2.81H10.59L19.01,28.6z M13.93,48.24h36.2l-5.34,5v3.41
		h2.81v22.45H13.93V48.24z M89.69,84.72H8.32v-1.4c0-0.77,0.63-1.4,1.4-1.4h78.57c0.77,0,1.4,0.63,1.4,1.4V84.72z M86.89,79.11
		h-2.81V56.66h2.81V79.11z M86.89,79.11"/>
	<path class="st0" d="M30.77,51.05H16.74v11.22h14.03V51.05z M19.55,53.86h2.81v5.61h-2.81V53.86z M27.96,59.47h-2.81v-5.61h2.81
		V59.47z M27.96,59.47"/>
	<path class="st0" d="M30.77,76.3H44.8V65.08H30.77V76.3z M41.99,73.5h-2.81v-5.61h2.81V73.5z M33.58,67.89h2.81v5.61h-2.81V67.89z
		 M33.58,67.89"/>
</g>
</svg>
