<?xml version="1.0" encoding="utf-8"?>
<!-- Generator: Adobe Illustrator 23.0.1, SVG Export Plug-In . SVG Version: 6.00 Build 0)  -->
<svg version="1.1" id="Layer_1" xmlns="http://www.w3.org/2000/svg" xmlns:xlink="http://www.w3.org/1999/xlink" x="0px" y="0px"
	 viewBox="0 0 98 88" style="enable-background:new 0 0 98 88;" xml:space="preserve">
<style type="text/css">
	.st0{fill:#828282;}
</style>
<g>
	<path class="st0" d="M59.53,58.4h-4.17V45.89c0-3.84-3.11-6.95-6.95-6.95h-27.8c-3.84,0-6.95,3.11-6.95,6.95V58.4H9.49
		c-0.77,0-1.39,0.62-1.39,1.39v19.46c0,0.77,0.62,1.39,1.39,1.39h1.39v4.17c0,0.77,0.62,1.39,1.39,1.39h5.56
		c0.77,0,1.39-0.62,1.39-1.39v-4.17H49.8v4.17c0,0.77,0.62,1.39,1.39,1.39h5.56c0.77,0,1.39-0.62,1.39-1.39v-4.17h1.39
		c0.77,0,1.39-0.62,1.39-1.39V59.79C60.92,59.02,60.3,58.4,59.53,58.4z M16.44,45.89c0-2.3,1.87-4.17,4.17-4.17h27.8
		c2.3,0,4.17,1.87,4.17,4.17V58.4h-4.17c-0.77,0-1.39,0.62-1.39,1.39v6.95H22v-6.95c0-0.77-0.62-1.39-1.39-1.39h-4.17V45.89z
		 M10.88,61.18h8.34v16.68h-8.34V61.18z M16.44,83.42h-2.78v-2.78h2.78V83.42z M22,69.52h25.02v8.34H22V69.52z M55.36,83.42h-2.78
		v-2.78h2.78V83.42z M58.14,77.86H49.8V61.18h8.34V77.86z"/>
	<path class="st0" d="M91.44,26.01L84.49,3.77c-0.18-0.58-0.72-0.97-1.33-0.97H72.04c-0.61,0-1.14,0.39-1.33,0.97l-6.95,22.24
		c-0.23,0.73,0.18,1.51,0.91,1.74c0.13,0.04,0.28,0.06,0.42,0.06h11.12v50.04h-9.73c-0.77,0-1.39,0.62-1.39,1.39v5.56
		c0,0.77,0.62,1.39,1.39,1.39h22.24c0.77,0,1.39-0.62,1.39-1.39v-5.56c0-0.77-0.62-1.39-1.39-1.39h-9.73V27.81h11.12
		c0.77,0,1.39-0.62,1.39-1.39C91.5,26.28,91.48,26.14,91.44,26.01z M87.33,80.64v2.78H67.87v-2.78H87.33z M66.98,25.03l6.08-19.46
		h9.08l6.08,19.46H66.98z"/>
	<path class="st0" d="M53.97,8.35H41.95L35.38,3.1c-0.51-0.41-1.23-0.41-1.74,0l-6.57,5.26H15.05v25.02h38.92V8.35z M34.51,5.96
		l2.99,2.39h-5.98L34.51,5.96z M51.19,30.6H17.83V11.13h33.36V30.6z"/>
	<path class="st0" d="M19.22,29.21H49.8V12.52H19.22V29.21z M22,15.3h25.02v11.12H22V15.3z"/>
</g>
</svg>
