<?xml version="1.0" encoding="utf-8"?>
<!-- Generator: Adobe Illustrator 23.0.1, SVG Export Plug-In . SVG Version: 6.00 Build 0)  -->
<svg version="1.1" id="Layer_1" xmlns="http://www.w3.org/2000/svg" xmlns:xlink="http://www.w3.org/1999/xlink" x="0px" y="0px"
	 viewBox="0 0 98 88" style="enable-background:new 0 0 98 88;" xml:space="preserve">
<style type="text/css">
	.st0{fill:#828282;}
</style>
<path class="st0" d="M38.6,5.2c0,2.3,1.8,4.1,4.1,4.1h6.8v8.2h-2.7v9.3l-7,16.7l3.4,6.8h2.2c0,3,2.4,5.5,5.5,5.5s5.5-2.4,5.5-5.5
	h2.2l3.4-6.8l-7-16.7v-9.3h-2.7V9.3h6.8c2.3,0,4.1-1.8,4.1-4.1V1.1H38.6V5.2z M49.6,20.2h2.7v5.5h-2.7V20.2z M50.9,53
	c-1.5,0-2.7-1.2-2.7-2.7h5.5C53.7,51.8,52.4,53,50.9,53z M56.9,47.6H45l-2.1-4.1l6.2-15h3.6l6.2,15L56.9,47.6z M41.4,3.9h19.1v1.4
	c0,0.8-0.6,1.4-1.4,1.4H42.7c-0.8,0-1.4-0.6-1.4-1.4V3.9z"/>
<path class="st0" d="M68.7,31.2v4.1c0,2.3,1.8,4.1,4.1,4.1h6.8v8.2h-2.7v9.1L74.7,60c-2.1,3.2-3.3,6.9-3.3,10.8s1.1,7.6,3.3,10.8
	l2.8,4.3h6.9l2.8-4.3c2.1-3.2,3.3-6.9,3.3-10.8s-1.1-7.6-3.3-10.8l-2.2-3.3v-9.1h-2.7v-8.2h6.8c2.3,0,4.1-1.8,4.1-4.1v-4.1H68.7z
	 M79.6,50.3h2.7v5.5h-2.7V50.3z M87.8,70.8c0,3.3-1,6.5-2.8,9.2l-2,3h-4l-2-3c-1.8-2.7-2.8-5.9-2.8-9.2s1-6.5,2.8-9.2l2-3h4l2,3
	C86.8,64.3,87.8,67.5,87.8,70.8z M90.5,35.3c0,0.8-0.6,1.4-1.4,1.4H72.8c-0.8,0-1.4-0.6-1.4-1.4v-1.4h19.1V35.3z"/>
<path class="st0" d="M8.6,18.9c0,2.3,1.8,4.1,4.1,4.1h6.8v8.2h-2.7v11.2c0,6.4-2.8,12.4-7.7,16.4l-0.5,0.4v4.7h5.6
	c0.6,3.1,3.4,5.5,6.7,5.5s6.1-2.4,6.7-5.5h5.6v-4.7l-0.5-0.4C27.8,54.7,25,48.7,25,42.3V31.2h-2.7V23h6.8c2.3,0,4.1-1.8,4.1-4.1
	v-4.1H8.6V18.9z M19.5,33.9h2.7v5.5h-2.7V33.9z M20.9,66.7c-1.8,0-3.3-1.1-3.8-2.7h7.7C24.2,65.5,22.7,66.7,20.9,66.7z M30.5,60.5
	v0.7H11.3v-0.7c5.2-4.6,8.2-11.2,8.2-18.1v-0.3h2.7v0.3C22.3,49.3,25.2,55.9,30.5,60.5z M11.3,17.5h19.1v1.4c0,0.8-0.6,1.4-1.4,1.4
	H12.7c-0.8,0-1.4-0.6-1.4-1.4V17.5z"/>
</svg>
